<svg width="133" height="133" viewBox="0 0 133 133" fill="none" xmlns="http://www.w3.org/2000/svg">
<path d="M62.6732 1.58513C65.1234 0.570188 67.8766 0.570187 70.3268 1.58513L109.696 17.8923C112.146 18.9072 114.093 20.854 115.108 23.3042L131.415 62.6732C132.43 65.1234 132.43 67.8766 131.415 70.3268L115.108 109.696C114.093 112.146 112.146 114.093 109.696 115.108L70.3268 131.415C67.8766 132.43 65.1234 132.43 62.6732 131.415L23.3042 115.108C20.854 114.093 18.9072 112.146 17.8923 109.696L1.58513 70.3268C0.570188 67.8766 0.570187 65.1234 1.58513 62.6732L17.8923 23.3042C18.9072 20.854 20.854 18.9072 23.3042 17.8923L62.6732 1.58513Z" fill="url(#paint0_linear_142_572)"/>
<defs>
<linearGradient id="paint0_linear_142_572" x1="66.5" y1="0" x2="66.5" y2="133" gradientUnits="userSpaceOnUse">
<stop stop-color="#1523B7"/>
<stop offset="1" stop-color="#275AF3"/>
</linearGradient>
</defs>
</svg>
